# xmcd
#
# Track frame offsets:
#	150
#	6820
#	18278
#	34853
#	56193
#	70842
#	84516
#	102908
#	118973
#	136940
#	155365
#	170309
#	185428
#	201292
#
# Disc length: 2950 seconds
#
# Revision: 1
# Processed by: cddbd v1.5.1PL2 Copyright (c) Steve Scherf et al.
# Submitted via: EasyCDDAExtractor 7.5.0.1
#
DISCID=b90b840e
DTITLE='Ale'a - Kaulupono
DYEAR=2004
DGENRE=hawaiian
TTITLE0=He Ala Kamaha'o I Ka Lewa
TTITLE1=E Kiss Kaua
TTITLE2=Halalu
TTITLE3=Ka Lehua Punono
TTITLE4=Kekahao'iolani
TTITLE5=Ka Ua Loku - Hanohano Hanalei
TTITLE6=The Best Of My Love
TTITLE7=She's Every Woman
TTITLE8=Ka Hana Ia A Ke Aloha
TTITLE9=Ka Beauty A'o Uka
TTITLE10=He Mele No Ka Pipi Palupalu
TTITLE11=Hapa Haole Medley
TTITLE12=Hula O Makee
TTITLE13=Long As I Can See The Light
EXTD=
EXTT0=
EXTT1=
EXTT2=
EXTT3=
EXTT4=
EXTT5=
EXTT6=
EXTT7=
EXTT8=
EXTT9=
EXTT10=
EXTT11=
EXTT12=
EXTT13=
PLAYORDER=
